<svg id="Camada_1" data-name="Camada 1" xmlns="http://www.w3.org/2000/svg" viewBox="0 0 773.06 258.64"><defs><style>.cls-1{fill:#514e51;}.cls-2{fill:#2576ae;}.cls-3{fill:#02a04e;}.cls-3,.cls-4,.cls-5,.cls-6{fill-rule:evenodd;}.cls-4{fill:#fdd700;}.cls-5{fill:#1d3261;}.cls-6{fill:#fff;}</style></defs><path class="cls-1" d="M359,232a33.33,33.33,0,0,1-9.82,1.43q-17.88,0-14.33-17.76,3.36-16.8,21.24-16.8a28.19,28.19,0,0,1,9.25,1.43l-.76,3.81a22.88,22.88,0,0,0-8.73-1.67q-13.95,0-16.59,13.23-2.84,14.19,11.11,14.19a28.21,28.21,0,0,0,9.39-1.67Z"/><path class="cls-1" d="M364.88,220.67q2.5-12.51,13.94-12.51t8.94,12.51q-2.5,12.5-13.94,12.49T364.88,220.67Zm9.65,8.94q7,0,8.85-9,1.75-8.83-5.27-8.84t-8.8,8.84Q367.51,229.62,374.53,229.61Z"/><path class="cls-1" d="M389.27,233.18l5-25h3.93l-1,7.43q4.4-7.44,11-7.43,6,0,4.5,7.24,4.61-7.25,11.18-7.24,6.24,0,4.63,8.05l-3.39,17h-4.41l3.38-17q.88-4.38-2.64-4.38-4.73,0-9.37,7.93l-2.69,13.42H405l3.38-17c.59-2.92-.27-4.38-2.6-4.38q-4.9,0-9.41,7.93l-2.69,13.42Z"/><path class="cls-1" d="M438.56,214.11c2.69-4,5.9-6,9.66-6q8.52,0,6.22,11.53-2.7,13.5-15.16,13.49a43.63,43.63,0,0,1-4.48-.21l-1.86,9.27h-4.41l6.81-34.08h3.94Zm-.79,3.91-2.14,10.8a8.53,8.53,0,0,0,4.17.69q8.34,0,10.3-9.75,1.54-7.78-3.39-7.79Q441.61,212,437.77,218Z"/><path class="cls-1" d="M475.94,233.18H472l.71-6q-4,6-9.63,6-8.54,0-6.1-12.18,2.58-12.84,15.09-12.84a31.86,31.86,0,0,1,8.65,1Zm-.26-20.78a12,12,0,0,0-4.53-.57q-8,0-9.8,9.12-1.69,8.43,3.24,8.42,5.1,0,8.92-6.05Z"/><path class="cls-1" d="M481.14,233.18l5-25h3.94L489,215.88q4.75-7.73,11.73-7.72t5.36,8.12l-3.38,16.9H498.3l3.38-17q.88-4.38-3.48-4.38-5,0-10,7.93l-2.69,13.42Z"/><path class="cls-1" d="M526.62,225.46q-4.74,7.72-11.73,7.72t-5.36-8.12l3.38-16.9h4.41l-3.38,17q-.88,4.38,3.48,4.38,5,0,10-7.93l2.69-13.42h4.41l-5,25q-1.82,9.06-13.33,9.06a23.87,23.87,0,0,1-8-1.19l.72-3.58a24.12,24.12,0,0,0,8,1.2q7.05,0,8.15-5.49Z"/><path class="cls-1" d="M466.36,21.46l-5,24.78H387.87L380,85.38h69.79l-5.1,25.76H374.61l-13.16,65.77H333.19L364.28,21.46Z"/><path class="cls-1" d="M499.74,62.77,476.91,176.91H448.1L470.93,62.77ZM508,21.46l-4.56,22.83H474.63l4.56-22.83Z"/><path class="cls-1" d="M521.71,44.29H543l.66,18.48h26.52L565.63,85.6H542.25l-10.54,52.5q-3.15,16,10.65,16h9.57l-4.57,22.83H523.88q-28.69,0-22.5-30.76Z"/><path class="cls-1" d="M672.49,96.9Q665.65,131,619.66,131H591.07q-4.56,23,25.44,23,22.72,0,42.83-14.13l-4.57,22.83q-17.92,14.13-45,14.13-56.64,0-45-58.38Q576,62.78,630.64,62.77,679.35,62.77,672.49,96.9Zm-77.18,13h28.81q17.94,0,20.44-12.29T626.08,85.38Q602.16,85.38,595.31,110Z"/><path class="cls-1" d="M753.71,162.78q-17,14.13-37.61,14.13-54.36,0-42.73-58.16,11.21-56,69.9-56A126.46,126.46,0,0,1,773.06,66l-4.57,22.83a116.65,116.65,0,0,0-27.61-3.26q-32.07,0-38.7,33.15-7.06,35.34,20.66,35.33,18.48,0,35.43-14.13Z"/><polygon class="cls-2" points="74.84 208.48 61.37 185.15 210.51 185.15 225.22 161.84 189.88 161.84 111.48 113.08 7.99 113.08 0 126.81 6.79 138.48 105.34 138.48 145.76 161.81 20.37 161.81 61.12 231.82 183.35 231.82 196.93 208.48 74.84 208.48"/><polygon class="cls-2" points="201.94 113.2 161.83 91.93 224.16 91.93 209.38 66.53 118.28 66.53 55.91 30.74 43.85 51.47 73.01 66.53 35.08 66.53 20.38 91.8 118.28 91.81 195.77 136.54 238.81 136.54 244.47 126.81 236.55 113.2 201.94 113.2"/><polygon class="cls-2" points="124.5 43.2 195.8 43.2 183.35 21.81 87.22 21.81 124.5 43.2"/><rect class="cls-2" x="285.23" width="2.3" height="258.64"/><polygon class="cls-3" points="549.29 199.16 606.48 199.16 606.48 233.12 549.29 233.12 549.29 199.16 549.29 199.16"/><polygon class="cls-4" points="577.88 202.57 556.64 216.14 577.88 229.71 599.13 216.14 577.88 202.57 577.88 202.57"/><path class="cls-5" d="M577.87,207.2a8.94,8.94,0,1,1-8.94,8.94,8.94,8.94,0,0,1,8.94-8.94Z"/><path class="cls-6" d="M572.53,213.38a21.29,21.29,0,0,1,13.94,5.18,7.4,7.4,0,0,0,.27-1.34,22.49,22.49,0,0,0-14.21-5.05,23,23,0,0,0-2.76.17,9.35,9.35,0,0,0-.48,1.28,21.68,21.68,0,0,1,3.24-.24Z"/></svg>